# xmcd
#
# Track frame offsets:
#	150
#	18592
#	38460
#	61657
#	80357
#	110892
#	128087
#	150492
#	170582
#	198467
#	219517
#	239410
#	257209
#	285560
#
# Disc length: 4147 seconds
#
# Revision: 1
# Processed by: cddbd v1.5.2PL0 Copyright (c) Steve Scherf et al.
# Submitted via: EZCDAudioConverter 7.0.9.1
#
DISCID=be10310e
DTITLE=Natalie Grant - Worship With Natalie Grant and Friends
DYEAR=2004
DGENRE=Christian
TTITLE0=Holy Holy Holy
TTITLE1=Let It Rise
TTITLE2=High And Exalted
TTITLE3=Crown You With Praise
TTITLE4=Breathe On Me - I Need Thee Every Hour
TTITLE5=You Are My All In All
TTITLE6=Agnus Dei
TTITLE7=Come Into This House
TTITLE8=Holy Spirit Rain Down
TTITLE9=Awesome In This Place
TTITLE10=Just A Glimpise
TTITLE11=More Of Your Glory
TTITLE12=Break Me Lord - Oh Draw Me Lord
TTITLE13=Shout To The Lord
EXTD=
EXTT0=
EXTT1=
EXTT2=
EXTT3=
EXTT4=
EXTT5=
EXTT6=
EXTT7=
EXTT8=
EXTT9=
EXTT10=
EXTT11=
EXTT12=
EXTT13=
PLAYORDER=
